<mxfile host="app.diagrams.net" modified="2022-05-16T13:14:09.373Z" agent="5.0 (Windows NT 10.0; Win64; x64) AppleWebKit/537.36 (KHTML, like Gecko) Chrome/101.0.4951.54 Safari/537.36" etag="2Ip6vBeIz9sRL7mZ12Wg" version="18.0.5" type="github">
  <diagram id="63sn48kP8qUf8l2nA22V" name="Page-1">
    <mxGraphModel dx="868" dy="482" grid="1" gridSize="10" guides="1" tooltips="1" connect="1" arrows="1" fold="1" page="1" pageScale="1" pageWidth="827" pageHeight="1169" math="0" shadow="0">
      <root>
        <mxCell id="0" />
        <mxCell id="1" parent="0" />
        <mxCell id="hfj7lm-i4268EB2-MM79-12" style="edgeStyle=orthogonalEdgeStyle;rounded=0;orthogonalLoop=1;jettySize=auto;html=1;exitX=0.5;exitY=1;exitDx=0;exitDy=0;entryX=0.5;entryY=0;entryDx=0;entryDy=0;" edge="1" parent="1" source="hfj7lm-i4268EB2-MM79-1" target="hfj7lm-i4268EB2-MM79-10">
          <mxGeometry relative="1" as="geometry" />
        </mxCell>
        <mxCell id="hfj7lm-i4268EB2-MM79-1" value="Leap Year" style="rounded=1;whiteSpace=wrap;html=1;" vertex="1" parent="1">
          <mxGeometry x="320" y="210" width="180" height="50" as="geometry" />
        </mxCell>
        <mxCell id="hfj7lm-i4268EB2-MM79-4" value="Yes" style="text;html=1;strokeColor=none;fillColor=none;align=center;verticalAlign=middle;whiteSpace=wrap;rounded=0;" vertex="1" parent="1">
          <mxGeometry x="520" y="340" width="60" height="30" as="geometry" />
        </mxCell>
        <mxCell id="hfj7lm-i4268EB2-MM79-5" value="No" style="text;html=1;strokeColor=none;fillColor=none;align=center;verticalAlign=middle;whiteSpace=wrap;rounded=0;" vertex="1" parent="1">
          <mxGeometry x="250" y="340" width="60" height="30" as="geometry" />
        </mxCell>
        <mxCell id="hfj7lm-i4268EB2-MM79-15" style="edgeStyle=orthogonalEdgeStyle;rounded=0;orthogonalLoop=1;jettySize=auto;html=1;exitX=0;exitY=0.5;exitDx=0;exitDy=0;entryX=0.5;entryY=0;entryDx=0;entryDy=0;" edge="1" parent="1" source="hfj7lm-i4268EB2-MM79-10" target="hfj7lm-i4268EB2-MM79-14">
          <mxGeometry relative="1" as="geometry" />
        </mxCell>
        <mxCell id="hfj7lm-i4268EB2-MM79-18" style="edgeStyle=orthogonalEdgeStyle;rounded=0;orthogonalLoop=1;jettySize=auto;html=1;exitX=1;exitY=0.5;exitDx=0;exitDy=0;entryX=0.5;entryY=0;entryDx=0;entryDy=0;" edge="1" parent="1" source="hfj7lm-i4268EB2-MM79-10" target="hfj7lm-i4268EB2-MM79-17">
          <mxGeometry relative="1" as="geometry" />
        </mxCell>
        <mxCell id="hfj7lm-i4268EB2-MM79-10" value="&lt;span style=&quot;&quot;&gt;Is it cleanly divisible by 4&lt;/span&gt;" style="rhombus;whiteSpace=wrap;html=1;" vertex="1" parent="1">
          <mxGeometry x="320" y="320" width="180" height="90" as="geometry" />
        </mxCell>
        <mxCell id="hfj7lm-i4268EB2-MM79-14" value="Not Leap" style="rounded=1;whiteSpace=wrap;html=1;fillColor=#f8cecc;strokeColor=#b85450;" vertex="1" parent="1">
          <mxGeometry x="160" y="400" width="120" height="60" as="geometry" />
        </mxCell>
        <mxCell id="hfj7lm-i4268EB2-MM79-22" style="edgeStyle=orthogonalEdgeStyle;rounded=0;orthogonalLoop=1;jettySize=auto;html=1;exitX=0;exitY=0.5;exitDx=0;exitDy=0;entryX=0.5;entryY=0;entryDx=0;entryDy=0;" edge="1" parent="1" source="hfj7lm-i4268EB2-MM79-17" target="hfj7lm-i4268EB2-MM79-21">
          <mxGeometry relative="1" as="geometry" />
        </mxCell>
        <mxCell id="hfj7lm-i4268EB2-MM79-24" style="edgeStyle=orthogonalEdgeStyle;rounded=0;orthogonalLoop=1;jettySize=auto;html=1;exitX=1;exitY=0.5;exitDx=0;exitDy=0;entryX=0.5;entryY=0;entryDx=0;entryDy=0;" edge="1" parent="1" source="hfj7lm-i4268EB2-MM79-17" target="hfj7lm-i4268EB2-MM79-23">
          <mxGeometry relative="1" as="geometry" />
        </mxCell>
        <mxCell id="hfj7lm-i4268EB2-MM79-17" value="&lt;span style=&quot;&quot;&gt;Is it&amp;nbsp;&lt;/span&gt;cleanly&amp;nbsp;&lt;span style=&quot;&quot;&gt;divisible by 100&lt;/span&gt;" style="rhombus;whiteSpace=wrap;html=1;" vertex="1" parent="1">
          <mxGeometry x="530" y="420" width="180" height="90" as="geometry" />
        </mxCell>
        <mxCell id="hfj7lm-i4268EB2-MM79-19" value="Yes" style="text;html=1;strokeColor=none;fillColor=none;align=center;verticalAlign=middle;whiteSpace=wrap;rounded=0;" vertex="1" parent="1">
          <mxGeometry x="722.5" y="440" width="60" height="30" as="geometry" />
        </mxCell>
        <mxCell id="hfj7lm-i4268EB2-MM79-20" value="No" style="text;html=1;strokeColor=none;fillColor=none;align=center;verticalAlign=middle;whiteSpace=wrap;rounded=0;" vertex="1" parent="1">
          <mxGeometry x="457.5" y="440" width="60" height="30" as="geometry" />
        </mxCell>
        <mxCell id="hfj7lm-i4268EB2-MM79-21" value="Leap" style="rounded=1;whiteSpace=wrap;html=1;fillColor=#d5e8d4;strokeColor=#82b366;" vertex="1" parent="1">
          <mxGeometry x="380" y="500" width="120" height="60" as="geometry" />
        </mxCell>
        <mxCell id="hfj7lm-i4268EB2-MM79-29" style="edgeStyle=orthogonalEdgeStyle;rounded=0;orthogonalLoop=1;jettySize=auto;html=1;exitX=0;exitY=0.5;exitDx=0;exitDy=0;entryX=0.5;entryY=0;entryDx=0;entryDy=0;" edge="1" parent="1" source="hfj7lm-i4268EB2-MM79-23" target="hfj7lm-i4268EB2-MM79-25">
          <mxGeometry relative="1" as="geometry" />
        </mxCell>
        <mxCell id="hfj7lm-i4268EB2-MM79-30" style="edgeStyle=orthogonalEdgeStyle;rounded=0;orthogonalLoop=1;jettySize=auto;html=1;exitX=1;exitY=0.5;exitDx=0;exitDy=0;entryX=0.5;entryY=0;entryDx=0;entryDy=0;" edge="1" parent="1" source="hfj7lm-i4268EB2-MM79-23" target="hfj7lm-i4268EB2-MM79-26">
          <mxGeometry relative="1" as="geometry" />
        </mxCell>
        <mxCell id="hfj7lm-i4268EB2-MM79-23" value="&lt;span style=&quot;&quot;&gt;Is it&amp;nbsp;&lt;/span&gt;cleanly&amp;nbsp;&lt;span style=&quot;&quot;&gt;divisible by 400&lt;/span&gt;" style="rhombus;whiteSpace=wrap;html=1;" vertex="1" parent="1">
          <mxGeometry x="700" y="540" width="180" height="90" as="geometry" />
        </mxCell>
        <mxCell id="hfj7lm-i4268EB2-MM79-25" value="Not Leap" style="rounded=1;whiteSpace=wrap;html=1;fillColor=#f8cecc;strokeColor=#b85450;" vertex="1" parent="1">
          <mxGeometry x="560" y="660" width="120" height="60" as="geometry" />
        </mxCell>
        <mxCell id="hfj7lm-i4268EB2-MM79-26" value="Leap" style="rounded=1;whiteSpace=wrap;html=1;fillColor=#d5e8d4;strokeColor=#82b366;" vertex="1" parent="1">
          <mxGeometry x="900" y="660" width="120" height="60" as="geometry" />
        </mxCell>
        <mxCell id="hfj7lm-i4268EB2-MM79-27" value="Yes" style="text;html=1;strokeColor=none;fillColor=none;align=center;verticalAlign=middle;whiteSpace=wrap;rounded=0;" vertex="1" parent="1">
          <mxGeometry x="892.5" y="555" width="60" height="30" as="geometry" />
        </mxCell>
        <mxCell id="hfj7lm-i4268EB2-MM79-28" value="No" style="text;html=1;strokeColor=none;fillColor=none;align=center;verticalAlign=middle;whiteSpace=wrap;rounded=0;" vertex="1" parent="1">
          <mxGeometry x="627.5" y="555" width="60" height="30" as="geometry" />
        </mxCell>
      </root>
    </mxGraphModel>
  </diagram>
</mxfile>
